<svg role="img" viewBox="0 0 24 24" xmlns="http://www.w3.org/2000/svg">
  <title>DBeaver</title>
  <path d="M8.476 8.99c-1.462 0-2.646 1.185-2.646 2.646s1.184 2.646 2.646 2.646 2.646-1.185 2.646-2.646S9.938 8.99 8.476 8.99zm8.378-1.857c-1.257 0-2.275 1.018-2.275 2.275s1.018 2.275 2.275 2.275 2.275-1.018 2.275-2.275-1.018-2.275-2.275-2.275zM12 0C5.373 0 0 5.373 0 12s5.373 12 12 12 12-5.373 12-12S18.627 0 12 0zm4.854 15.683c-1.462 0-2.646-1.185-2.646-2.646s1.184-2.646 2.646-2.646 2.646 1.185 2.646 2.646-1.184 2.646-2.646 2.646z" fill="#382923"/>
</svg> 