<svg role="img" viewBox="0 0 24 24" xmlns="http://www.w3.org/2000/svg">
  <title>Figma</title>
  <path d="M15.852 8.981h-4.588V0h4.588c2.476 0 4.49 2.014 4.49 4.49s-2.014 4.491-4.49 4.491zM12.735 7.51h3.117c1.665 0 3.019-1.355 3.019-3.02s-1.354-3.02-3.02-3.02h-3.116v6.04zM15.852 24c-2.476 0-4.49-2.014-4.49-4.49s2.014-4.49 4.49-4.49 4.49 2.014 4.49 4.49-2.014 4.49-4.49 4.49zm0-7.509c-1.665 0-3.019 1.355-3.019 3.019s1.354 3.02 3.019 3.02 3.019-1.355 3.019-3.02-1.354-3.019-3.019-3.019zM8.148 24c-2.476 0-4.49-2.014-4.49-4.49s2.014-4.49 4.49-4.49h4.588v4.49c0 2.476-2.014 4.49-4.588 4.49zm0-7.509c-1.665 0-3.019 1.355-3.019 3.019s1.354 3.02 3.019 3.02h3.117v-3.02c0-1.664-1.355-3.019-3.117-3.019zM8.148 16.49c-2.476 0-4.49-2.014-4.49-4.49s2.014-4.49 4.49-4.49h4.588v8.98H8.148zm0-7.509c-1.665 0-3.019 1.355-3.019 3.019s1.354 3.02 3.019 3.02h3.117V8.981H8.148zM8.148 8.981c-2.476 0-4.49-2.014-4.49-4.49s2.014-4.49 4.49-4.49h4.588v8.98H8.148zm0-7.509c-1.665 0-3.019 1.355-3.019 3.019s1.354 3.02 3.019 3.02h3.117V1.472H8.148z" fill="#F24E1E"/>
</svg> 