<svg role="img" viewBox="0 0 24 24" xmlns="http://www.w3.org/2000/svg">
  <title>SonarQube</title>
  <path d="M15.685.386l-.465.766c3.477 2.112 6.305 5.27 7.966 8.89L24 9.67C22.266 5.887 19.313 2.59 15.685.386zM8.462 1.846l-.213.964c3.285.726 6.295 2.508 8.732 5.163l.702-.71c-2.558-2.784-5.756-4.653-9.221-5.417zM.9 6.318l.335.941c2.246.797 4.293 2.129 6.014 3.913l.617-.787C6.153 8.6 3.9 7.19 1.455 6.318zm22.717 9.564c-.456 1.87-1.156 3.691-2.084 5.418l.872.49c.984-1.834 1.728-3.772 2.212-5.767l-1 -.141zm-6.327 1.987l-.702.71c2.558 2.784 5.756 4.653 9.221 5.417l.213-.964c-3.285-.726-6.295-2.508-8.732-5.163zM9.116 22.154l.617.787c1.713-1.784 3.96-3.194 6.405-4.066l-.335-.941c-2.246.797-4.293 2.129-6.014 3.913z" fill="#4E9BCD"/>
</svg> 