<svg role="img" viewBox="0 0 24 24" xmlns="http://www.w3.org/2000/svg">
  <title>Sourcetree</title>
  <path d="M12 0C5.373 0 0 5.373 0 12s5.373 12 12 12 12-5.373 12-12S18.627 0 12 0zm5.568 8.16c-.169-.256-.393-.486-.672-.69a3.454 3.454 0 0 0-.926-.46 3.796 3.796 0 0 0-1.08-.155c-.727 0-1.303.194-1.728.583-.425.388-.637.895-.637 1.521 0 .727.252 1.303.756 1.728s1.122.637 1.849.637c.626 0 1.169-.169 1.629-.506.46-.338.756-.806.888-1.404h-2.517v-.756h3.591c.034.169.05.372.05.608 0 .862-.252 1.612-.756 2.25-.505.637-1.185 1.135-2.04 1.494-.856.358-1.796.538-2.821.538-1.034 0-1.966-.18-2.797-.538-.83-.359-1.493-.847-1.989-1.461-.497-.615-.745-1.307-.745-2.077 0-.77.248-1.463.745-2.077.496-.614 1.159-1.102 1.989-1.461.831-.358 1.763-.538 2.797-.538 1.237 0 2.34.236 3.307.708.968.472 1.703 1.135 2.205 1.989l-1.349.844z" fill="#0052CC"/>
</svg>
